<svg width="151.000000" height="46.000000" viewBox="0 0 151 46" fill="none" xmlns="http://www.w3.org/2000/svg" xmlns:xlink="http://www.w3.org/1999/xlink">
	<defs/>
	<rect id="Brand/logo-colored" width="150.000000" height="46.000000" transform="translate(1.000000 0.000000)" fill="#FFFFFF" fill-opacity="0"/>
	<path id="Brand" d="M50.21 32.8L59.1 32.8C63.77 32.8 66.26 30.36 66.26 27.05C66.26 23.97 64.06 22.11 61.69 22L61.69 21.8C63.85 21.31 65.45 19.78 65.45 17.33C65.45 14.21 63.13 12 58.54 12L50.21 12L50.21 32.8ZM122.76 30.3C122.16 31.6 120.85 33.06 118.33 33.06C114.77 33.06 112 30.24 112 25.02C112 19.66 114.9 16.99 118.32 16.99C120.93 16.99 122.18 18.55 122.76 19.82L122.89 19.82L122.89 12L127.21 12L127.21 32.8L122.94 32.8L122.94 30.3L122.76 30.3ZM54.61 20.7L54.61 15.55L57.95 15.55C59.9 15.55 61.01 16.56 61.01 18.06C61.01 19.71 59.67 20.7 57.87 20.7L54.61 20.7ZM68.51 32.8L72.84 32.8L72.84 23.97C72.84 22.05 74.24 20.73 76.15 20.73C76.75 20.73 77.58 20.83 77.98 20.97L77.98 17.13C77.6 17.03 77.06 16.97 76.62 16.97C74.87 16.97 73.44 17.99 72.87 19.92L72.71 19.92L72.71 17.2L68.51 17.2L68.51 32.8ZM88.26 30.64C87.49 32.09 86 33.1 83.69 33.1C80.72 33.1 78.51 31.53 78.51 28.44C78.51 24.96 81.29 23.92 84.37 23.64C87.09 23.37 88.15 23.24 88.15 22.24L88.15 22.17C88.15 20.89 87.31 20.15 85.84 20.15C84.28 20.15 83.36 20.91 83.06 21.95L79.06 21.63C79.66 18.78 82.12 16.99 85.86 16.99C89.33 16.99 92.48 18.56 92.48 22.28L92.48 32.8L88.38 32.8L88.38 30.64L88.26 30.64ZM99.64 23.78C99.65 21.77 100.85 20.59 102.6 20.59C104.33 20.59 105.38 21.73 105.37 23.64L105.37 32.8L109.7 32.8L109.7 22.87C109.7 19.23 107.56 16.99 104.31 16.99C102 16.99 100.32 18.13 99.62 19.95L99.44 19.95L99.44 17.2L95.31 17.2L95.31 32.8L99.64 32.8L99.64 23.78ZM116.42 25C116.42 27.72 117.58 29.61 119.7 29.61C121.78 29.61 122.98 27.78 122.98 25C122.98 22.22 121.8 20.44 119.7 20.44C117.56 20.44 116.42 22.3 116.42 25ZM54.61 29.2L54.61 23.68L58.3 23.68C60.41 23.68 61.72 24.9 61.72 26.61C61.72 28.18 60.65 29.2 58.19 29.2L54.61 29.2ZM82.65 28.3C82.65 29.49 83.6 30.11 84.93 30.11C86.83 30.11 88.18 28.86 88.18 27.22L88.18 25.57C87.67 25.91 86.12 26.14 85.18 26.27C83.65 26.48 82.65 27.08 82.65 28.3Z" fill="#8CB7F5" fill-opacity="1.000000" fill-rule="evenodd"/>
	<g opacity="0.800000">
		<rect id="Brand/logo-symbol" width="44.000000" height="44.000000" transform="translate(0.000000 1.000000)" fill="#FFFFFF" fill-opacity="0"/>
		<path id="2" d="M14.46 2.91L37.18 2.91C40.94 2.91 44 6.28 44 10.44L44 35.55C44 39.71 40.94 43.08 37.18 43.08L14.46 43.08C10.7 43.08 7.65 39.71 7.65 35.55L7.65 10.44C7.65 6.28 10.7 2.91 14.46 2.91Z" fill="#0D6EFD" fill-opacity="0.200000" fill-rule="evenodd"/>
		<path id="1" d="M8.13 2.91L32.04 2.91C36 2.91 39.21 6.28 39.21 10.44L39.21 35.55C39.21 39.71 36 43.08 32.04 43.08L8.13 43.08C4.16 43.08 0.95 39.71 0.95 35.55L0.95 10.44C0.95 6.28 4.16 2.91 8.13 2.91Z" fill="#0D6EFD" fill-opacity="1.000000" fill-rule="evenodd"/>
		<g opacity="0.700000">
			<g opacity="0.300000">
				<path id="Path" d="M15.29 19.35L14.3 19.35C14.25 19.35 14.18 19.42 14.18 19.47L13.45 31.14L26.95 31.14L26.22 19.47C26.22 19.42 26.14 19.35 26.09 19.35L25.11 19.35L25.11 21.32C25.11 21.86 24.67 22.3 24.13 22.3C23.59 22.3 23.15 21.86 23.15 21.32L23.15 19.35L17.25 19.35L17.25 21.32C17.25 21.86 16.81 22.3 16.27 22.3C15.73 22.3 15.29 21.86 15.29 21.32L15.29 19.35Z" fill="#FFFFFF" fill-opacity="1.000000" fill-rule="evenodd"/>
			</g>
			<path id="Combined Shape" d="" fill="#FFFFFF" fill-opacity="1.000000" fill-rule="nonzero"/>
		</g>
	</g>
</svg>
